<svg width="280" height="40" viewBox="0 0 280 40" fill="none" xmlns="http://www.w3.org/2000/svg">
<g clipPath="url(#clip0_2906_1419)">
<path d="M31.8394 28.2642L28.552 26.6605C28.3652 26.5688 28.1232 26.6058 27.9898 26.7506C25.6019 29.3402 21.8761 31.0082 17.6949 31.0082C10.5025 31.0082 4.65185 26.0686 4.65185 19.9981C4.65185 18.076 5.23691 16.268 6.26793 14.6933C8.49195 11.2945 12.7799 8.98958 17.693 8.98958C21.878 8.98958 25.6076 10.6608 27.9955 13.2521C28.1289 13.3968 28.3709 13.4338 28.5577 13.3422L31.8451 11.7385C32.0738 11.6275 32.1329 11.3734 31.9766 11.1948C28.8093 7.54193 23.7266 5.14528 17.9845 5.06646C14.0244 5.01178 10.3348 6.07499 7.34087 7.91028C2.97287 10.59 0.0856445 14.9056 -0.000114709 19.781C-0.141141 28.1162 7.84971 34.9346 17.6911 34.9346C23.5494 34.9346 28.7502 32.5186 31.9728 28.8078C32.1272 28.6293 32.0662 28.3767 31.8375 28.2642H31.8394Z" fill="white"/>
<path d="M31.8451 11.7409L28.5577 13.3446C28.3709 13.4363 28.1289 13.3993 27.9955 13.2545C25.6076 10.6632 21.878 8.99199 17.6929 8.99199C12.778 8.99199 8.49003 11.297 6.26791 14.6957C6.17072 14.1134 6.11926 13.5183 6.11926 12.9135C6.11926 11.1361 6.55568 9.44559 7.34276 7.9143C10.3386 6.07901 14.0282 5.01419 17.9864 5.07049C23.7266 5.1493 28.8111 7.54596 31.9785 11.1988C32.1348 11.3774 32.0738 11.6315 31.847 11.7425L31.8451 11.7409Z" fill="white"/>
<path d="M39.9352 27.0227L39.3692 28.1004C35.6187 35.218 27.321 39.8569 18.1409 40.0017C17.8951 40.0049 17.6969 39.836 17.6969 39.6301V36.4469C17.6969 36.2474 17.8837 36.0801 18.1238 36.0769C24.7806 35.9515 30.8505 32.8857 34.1703 28.0715L18.1791 20.2799C17.9275 20.1577 17.9275 19.8472 18.1791 19.725L27.3134 15.2743L27.6392 15.1167L34.1722 11.9318C31.6204 8.2307 27.4411 5.56221 22.6176 4.46844C21.1692 4.14191 19.6617 3.95533 18.1257 3.92477C17.8856 3.92155 17.6988 3.75427 17.6988 3.55481V0.371607C17.695 0.16572 17.8932 -0.00317178 18.139 4.52088e-05C20.2678 0.0338236 22.3489 0.310484 24.3385 0.802683C30.9248 2.43048 36.4877 6.43563 39.3673 11.9013L39.9333 12.979C40.0934 13.2846 39.9543 13.6433 39.6112 13.8106L38.8623 14.1757L32.3484 17.3476L27.0675 19.9228C26.997 19.9582 26.997 20.0451 27.0675 20.0805L39.6093 26.1944C39.9524 26.36 40.0915 26.7171 39.9314 27.0243L39.9352 27.0227Z" fill="white"/>
<path d="M39.6132 13.809L38.8642 14.1741C36.7412 15.0507 34.3132 15.5493 31.7347 15.5493C30.313 15.5493 28.939 15.3981 27.6355 15.1167L34.1684 11.9318C31.6166 8.2307 27.4373 5.56221 22.6138 4.46844C21.1654 4.14191 19.6579 3.95533 18.1219 3.92477C17.8818 3.92155 17.695 3.75427 17.695 3.55481V0.371607C17.695 0.16572 17.8932 -0.00317178 18.139 4.52088e-05C20.2678 0.0338236 22.3489 0.310484 24.3385 0.802683C30.9248 2.43048 36.4877 6.43563 39.3673 11.9013L39.9333 12.979C40.0934 13.2846 39.9543 13.6433 39.6112 13.8106L39.6132 13.809Z" fill="white"/>
</g>
<path d="M58.12 28.736C56.424 29.104 54.896 29.288 53.536 29.288C52.176 29.288 51.088 29.12 50.272 28.784C49.456 28.448 48.816 27.912 48.352 27.176C47.888 26.44 47.568 25.576 47.392 24.584C47.216 23.592 47.128 22.344 47.128 20.84C47.128 17.688 47.568 15.496 48.448 14.264C49.344 13.016 50.984 12.392 53.368 12.392C54.744 12.392 56.336 12.608 58.144 13.04L58.048 15.68C56.464 15.44 55.144 15.32 54.088 15.32C53.048 15.32 52.304 15.464 51.856 15.752C51.408 16.024 51.072 16.552 50.848 17.336C50.64 18.12 50.536 19.456 50.536 21.344C50.536 23.232 50.752 24.544 51.184 25.28C51.632 26 52.512 26.36 53.824 26.36C55.152 26.36 56.56 26.248 58.048 26.024L58.12 28.736ZM60.5193 29V17H63.7113V18.272C65.0553 17.472 66.3353 16.952 67.5513 16.712V19.952C66.2553 20.224 65.1433 20.504 64.2153 20.792L63.7353 20.96V29H60.5193ZM68.3449 17H71.5129L73.6969 26.264H74.2489L76.4329 17H79.6009L75.3769 34.04H72.2329L73.5529 29H71.2969L68.3449 17ZM81.4489 34.04V17H84.6409V17.648C85.6809 17.024 86.5929 16.712 87.3769 16.712C88.9929 16.712 90.1849 17.2 90.9529 18.176C91.7209 19.136 92.1049 20.776 92.1049 23.096C92.1049 25.416 91.6809 27.032 90.8329 27.944C89.9849 28.84 88.5929 29.288 86.6569 29.288C86.1289 29.288 85.5609 29.24 84.9529 29.144L84.6649 29.096V34.04H81.4489ZM86.7529 19.592C86.1609 19.592 85.5609 19.712 84.9529 19.952L84.6649 20.072V26.36C85.3849 26.456 85.9689 26.504 86.4169 26.504C87.3449 26.504 87.9769 26.232 88.3129 25.688C88.6649 25.144 88.8409 24.216 88.8409 22.904C88.8409 20.696 88.1449 19.592 86.7529 19.592ZM101.152 19.736H98.1996V24.656C98.1996 25.136 98.2076 25.48 98.2236 25.688C98.2556 25.88 98.3436 26.048 98.4876 26.192C98.6476 26.336 98.8876 26.408 99.2076 26.408L101.032 26.36L101.176 28.928C100.104 29.168 99.2876 29.288 98.7276 29.288C97.2876 29.288 96.3036 28.968 95.7756 28.328C95.2476 27.672 94.9836 26.472 94.9836 24.728V19.736H93.5676V17H94.9836V13.664H98.1996V17H101.152V19.736ZM103.894 18.368C104.742 17.264 106.158 16.712 108.142 16.712C110.126 16.712 111.542 17.264 112.39 18.368C113.238 19.456 113.662 20.992 113.662 22.976C113.662 27.184 111.822 29.288 108.142 29.288C104.462 29.288 102.622 27.184 102.622 22.976C102.622 20.992 103.046 19.456 103.894 18.368ZM106.366 25.688C106.702 26.264 107.294 26.552 108.142 26.552C108.99 26.552 109.574 26.264 109.894 25.688C110.23 25.112 110.398 24.208 110.398 22.976C110.398 21.744 110.23 20.848 109.894 20.288C109.574 19.728 108.99 19.448 108.142 19.448C107.294 19.448 106.702 19.728 106.366 20.288C106.046 20.848 105.886 21.744 105.886 22.976C105.886 24.208 106.046 25.112 106.366 25.688ZM130.413 12.68H133.893L130.101 29H123.981L120.189 12.68H123.669L126.501 26.12H127.581L130.413 12.68ZM137.691 24.368C137.707 25.104 137.899 25.64 138.267 25.976C138.651 26.296 139.195 26.456 139.898 26.456C141.387 26.456 142.715 26.408 143.883 26.312L144.555 26.24L144.603 28.616C142.763 29.064 141.099 29.288 139.611 29.288C137.803 29.288 136.491 28.808 135.675 27.848C134.859 26.888 134.451 25.328 134.451 23.168C134.451 18.864 136.219 16.712 139.755 16.712C143.243 16.712 144.987 18.52 144.987 22.136L144.747 24.368H137.691ZM141.819 21.92C141.819 20.96 141.667 20.296 141.363 19.928C141.059 19.544 140.523 19.352 139.755 19.352C139.003 19.352 138.467 19.552 138.147 19.952C137.843 20.336 137.683 20.992 137.667 21.92H141.819ZM150.501 29H147.285V17H150.477V17.672C151.565 17.032 152.565 16.712 153.477 16.712C155.077 16.712 156.181 17.184 156.789 18.128C157.397 19.072 157.701 20.528 157.701 22.496V29H154.485V22.592C154.485 21.568 154.365 20.816 154.125 20.336C153.885 19.84 153.405 19.592 152.685 19.592C152.029 19.592 151.397 19.704 150.789 19.928L150.501 20.024V29ZM167.199 19.736H164.247V24.656C164.247 25.136 164.255 25.48 164.271 25.688C164.303 25.88 164.391 26.048 164.535 26.192C164.695 26.336 164.935 26.408 165.255 26.408L167.079 26.36L167.223 28.928C166.151 29.168 165.335 29.288 164.775 29.288C163.335 29.288 162.351 28.968 161.823 28.328C161.295 27.672 161.031 26.472 161.031 24.728V19.736H159.615V17H161.031V13.664H164.247V17H167.199V19.736ZM176.373 17H179.589V29H176.397V28.328C175.245 28.968 174.245 29.288 173.397 29.288C171.733 29.288 170.613 28.832 170.037 27.92C169.461 26.992 169.173 25.448 169.173 23.288V17H172.389V23.336C172.389 24.52 172.485 25.328 172.677 25.76C172.869 26.192 173.333 26.408 174.069 26.408C174.773 26.408 175.437 26.296 176.061 26.072L176.373 25.976V17ZM182.558 29V17H185.75V18.272C187.094 17.472 188.374 16.952 189.59 16.712V19.952C188.294 20.224 187.182 20.504 186.254 20.792L185.774 20.96V29H182.558ZM194.128 24.368C194.144 25.104 194.336 25.64 194.704 25.976C195.088 26.296 195.632 26.456 196.336 26.456C197.824 26.456 199.152 26.408 200.32 26.312L200.992 26.24L201.04 28.616C199.2 29.064 197.536 29.288 196.048 29.288C194.24 29.288 192.928 28.808 192.112 27.848C191.296 26.888 190.888 25.328 190.888 23.168C190.888 18.864 192.656 16.712 196.192 16.712C199.68 16.712 201.424 18.52 201.424 22.136L201.184 24.368H194.128ZM198.256 21.92C198.256 20.96 198.104 20.296 197.8 19.928C197.496 19.544 196.96 19.352 196.192 19.352C195.44 19.352 194.904 19.552 194.584 19.952C194.28 20.336 194.12 20.992 194.104 21.92H198.256ZM219.628 28.736C217.932 29.104 216.404 29.288 215.044 29.288C213.684 29.288 212.596 29.12 211.78 28.784C210.964 28.448 210.324 27.912 209.86 27.176C209.396 26.44 209.076 25.576 208.9 24.584C208.724 23.592 208.636 22.344 208.636 20.84C208.636 17.688 209.076 15.496 209.956 14.264C210.852 13.016 212.492 12.392 214.876 12.392C216.252 12.392 217.844 12.608 219.652 13.04L219.556 15.68C217.972 15.44 216.652 15.32 215.596 15.32C214.556 15.32 213.812 15.464 213.364 15.752C212.916 16.024 212.58 16.552 212.356 17.336C212.148 18.12 212.044 19.456 212.044 21.344C212.044 23.232 212.26 24.544 212.692 25.28C213.14 26 214.02 26.36 215.332 26.36C216.66 26.36 218.068 26.248 219.556 26.024L219.628 28.736ZM231.219 20.744V25.736C231.251 26.12 231.315 26.392 231.411 26.552C231.507 26.696 231.707 26.8 232.011 26.864L231.915 29.288C231.099 29.288 230.443 29.232 229.947 29.12C229.467 29.008 228.979 28.784 228.483 28.448C227.331 29.008 226.155 29.288 224.955 29.288C222.475 29.288 221.235 27.976 221.235 25.352C221.235 24.072 221.579 23.168 222.267 22.64C222.955 22.096 224.011 21.776 225.435 21.68L228.003 21.488V20.744C228.003 20.248 227.891 19.912 227.667 19.736C227.443 19.544 227.083 19.448 226.587 19.448L222.075 19.64L221.979 17.408C223.691 16.944 225.315 16.712 226.851 16.712C228.403 16.712 229.515 17.032 230.187 17.672C230.875 18.312 231.219 19.336 231.219 20.744ZM225.819 23.912C224.923 23.992 224.475 24.472 224.475 25.352C224.475 26.232 224.867 26.672 225.651 26.672C226.259 26.672 226.923 26.576 227.643 26.384L228.003 26.288V23.72L225.819 23.912ZM234.285 34.04V17H237.477V17.648C238.517 17.024 239.429 16.712 240.213 16.712C241.829 16.712 243.021 17.2 243.789 18.176C244.557 19.136 244.941 20.776 244.941 23.096C244.941 25.416 244.517 27.032 243.669 27.944C242.821 28.84 241.429 29.288 239.493 29.288C238.965 29.288 238.397 29.24 237.789 29.144L237.501 29.096V34.04H234.285ZM239.589 19.592C238.997 19.592 238.397 19.712 237.789 19.952L237.501 20.072V26.36C238.221 26.456 238.805 26.504 239.253 26.504C240.181 26.504 240.813 26.232 241.149 25.688C241.501 25.144 241.677 24.216 241.677 22.904C241.677 20.696 240.981 19.592 239.589 19.592ZM247.34 29V17H250.556V29H247.34ZM247.34 15.464V12.2H250.556V15.464H247.34ZM260.175 19.736H257.223V24.656C257.223 25.136 257.231 25.48 257.247 25.688C257.279 25.88 257.367 26.048 257.511 26.192C257.671 26.336 257.911 26.408 258.231 26.408L260.055 26.36L260.199 28.928C259.127 29.168 258.311 29.288 257.751 29.288C256.311 29.288 255.327 28.968 254.799 28.328C254.271 27.672 254.007 26.472 254.007 24.728V19.736H252.591V17H254.007V13.664H257.223V17H260.175V19.736ZM271.461 20.744V25.736C271.493 26.12 271.557 26.392 271.653 26.552C271.749 26.696 271.949 26.8 272.253 26.864L272.157 29.288C271.341 29.288 270.685 29.232 270.189 29.12C269.709 29.008 269.221 28.784 268.725 28.448C267.573 29.008 266.397 29.288 265.197 29.288C262.717 29.288 261.477 27.976 261.477 25.352C261.477 24.072 261.821 23.168 262.509 22.64C263.197 22.096 264.253 21.776 265.677 21.68L268.245 21.488V20.744C268.245 20.248 268.133 19.912 267.909 19.736C267.685 19.544 267.325 19.448 266.829 19.448L262.317 19.64L262.221 17.408C263.933 16.944 265.557 16.712 267.093 16.712C268.645 16.712 269.757 17.032 270.429 17.672C271.117 18.312 271.461 19.336 271.461 20.744ZM266.061 23.912C265.165 23.992 264.717 24.472 264.717 25.352C264.717 26.232 265.109 26.672 265.893 26.672C266.501 26.672 267.165 26.576 267.885 26.384L268.245 26.288V23.72L266.061 23.912ZM274.671 29V12.2H277.887V29H274.671Z" fill="white"/>
<defs>
<clipPath id="clip0_2906_1419">
<rect width="40" height="40" fill="white"/>
</clipPath>
</defs>
</svg>
