<svg width="120" height="177" viewBox="0 0 120 177" fill="none" xmlns="http://www.w3.org/2000/svg">
<path d="M59.7088 176.944L19.3119 155.044L0 122.99L29.0252 17.7464L59.7089 35.4932L59.7088 176.944Z" fill="url(#paint0_linear_2908_1657)"/>
<path d="M59.7088 176.944L59.7084 104.258L24.0303 125.272L19.3119 155.044L59.7088 176.944Z" fill="url(#paint1_linear_2908_1657)" fill-opacity="0.7"/>
<path d="M59.7088 176.944L100.113 155.039L119.418 122.99L90.3925 17.7464L59.7089 35.4932L59.7088 176.944Z" fill="url(#paint2_linear_2908_1657)" fill-opacity="0.7"/>
<path d="M59.7088 176.944L100.113 155.039L119.418 122.99L90.3925 17.7464L59.7089 35.4932L59.7088 176.944Z" fill="url(#paint3_linear_2908_1657)" fill-opacity="0.5"/>
<path d="M29.0252 17.7464L59.7089 35.4932L59.7088 0L29.0252 17.7464Z" fill="url(#paint4_linear_2908_1657)"/>
<path d="M59.7082 121.055L80.026 132.806L59.7082 144.556L39.3905 132.806L59.7082 121.055Z" fill="url(#paint5_linear_2908_1657)" fill-opacity="0.5"/>
<path d="M90.3925 17.7464L59.7088 0L59.7089 35.4932L90.3925 17.7464Z" fill="url(#paint6_linear_2908_1657)" fill-opacity="0.8"/>
<path d="M59.7082 7.47962L76.1665 16.998L59.7082 26.5164L43.25 16.998L59.7082 7.47962Z" fill="url(#paint7_linear_2908_1657)" fill-opacity="0.6"/>
<path d="M59.7088 176.944L59.7084 104.258L95.3886 125.272L100.107 155.043L59.7088 176.944Z" fill="url(#paint8_linear_2908_1657)"/>
<path d="M119.418 122.99L100.107 155.043L95.3886 125.272L119.418 122.99Z" fill="url(#paint9_linear_2908_1657)" fill-opacity="0.7"/>
<path d="M59.7082 93.3644L92.7753 112.488L59.7082 131.612L26.6412 112.488L59.7082 93.3644Z" fill="url(#paint10_linear_2908_1657)" fill-opacity="0.7"/>
<path d="M59.7082 93.3644L92.7753 112.488L59.7082 131.612L26.6412 112.488L59.7082 93.3644Z" fill="url(#paint11_linear_2908_1657)" fill-opacity="0.7"/>
<path d="M59.7082 131.612L92.7753 112.488L80.026 132.806L59.7082 144.556V131.612Z" fill="url(#paint12_linear_2908_1657)" fill-opacity="0.9"/>
<path d="M59.7082 131.612L26.6412 112.488L43.25 16.998L59.7082 26.5164V131.612Z" fill="url(#paint13_linear_2908_1657)" fill-opacity="0.6"/>
<path d="M59.7082 131.612L92.7753 112.488L76.1665 16.998L59.7082 26.5164V131.612Z" fill="url(#paint14_linear_2908_1657)" fill-opacity="0.9"/>
<path d="M59.7082 131.612L26.6412 112.488L39.3905 132.806L59.7082 144.556V131.612Z" fill="url(#paint15_linear_2908_1657)" fill-opacity="0.9"/>
<path d="M0 122.99L19.3119 155.044L24.0303 125.272L0 122.99Z" fill="url(#paint16_linear_2908_1657)" fill-opacity="0.7"/>
<defs>
<linearGradient id="paint0_linear_2908_1657" x1="-235.054" y1="-12.3799" x2="-240.393" y2="120.372" gradientUnits="userSpaceOnUse">
<stop stop-color="#3D79ED"/>
<stop offset="0.265625" stop-color="#3458C1" stop-opacity="0.7"/>
<stop offset="0.618879" stop-color="#3753B8" stop-opacity="0.7"/>
<stop offset="0.895833" stop-color="#5BB0FF" stop-opacity="0.9"/>
<stop offset="1" stop-color="#5BB0FF" stop-opacity="0.6"/>
</linearGradient>
<linearGradient id="paint1_linear_2908_1657" x1="14.124" y1="153.593" x2="58.1812" y2="34.9419" gradientUnits="userSpaceOnUse">
<stop offset="0.046875" stop-color="white"/>
<stop offset="0.427083" stop-color="#DFF4FF"/>
<stop offset="0.994792" stop-color="#0E42C8"/>
</linearGradient>
<linearGradient id="paint2_linear_2908_1657" x1="119.417" y1="181.819" x2="43.5573" y2="77.6711" gradientUnits="userSpaceOnUse">
<stop offset="0.280479" stop-color="white"/>
<stop offset="0.469567" stop-color="#FF79DA"/>
<stop offset="0.692708" stop-color="#3D3AE3" stop-opacity="0.9"/>
</linearGradient>
<linearGradient id="paint3_linear_2908_1657" x1="119.417" y1="173.619" x2="53.4551" y2="59.7041" gradientUnits="userSpaceOnUse">
<stop offset="0.161458" stop-color="white"/>
<stop offset="1" stop-color="white" stop-opacity="0"/>
</linearGradient>
<linearGradient id="paint4_linear_2908_1657" x1="33.5448" y1="1.87844" x2="85.7884" y2="147.571" gradientUnits="userSpaceOnUse">
<stop stop-color="#1AD6FF"/>
<stop offset="1" stop-color="#496BE4" stop-opacity="0.6"/>
<stop offset="1" stop-color="#1F3CA3"/>
</linearGradient>
<linearGradient id="paint5_linear_2908_1657" x1="113.459" y1="66.5561" x2="-6.13041" y2="116.331" gradientUnits="userSpaceOnUse">
<stop stop-color="#81FF6C"/>
<stop offset="1" stop-color="#31F3FF"/>
</linearGradient>
<linearGradient id="paint6_linear_2908_1657" x1="114.931" y1="-6.64936" x2="13.6012" y2="50.1091" gradientUnits="userSpaceOnUse">
<stop stop-color="#FF79C9"/>
<stop offset="1" stop-color="#1F3CA3"/>
</linearGradient>
<linearGradient id="paint7_linear_2908_1657" x1="115.965" y1="29.0815" x2="16.5067" y2="82.3778" gradientUnits="userSpaceOnUse">
<stop stop-color="#52FF6E"/>
<stop offset="1" stop-color="#31FFFF"/>
</linearGradient>
<linearGradient id="paint8_linear_2908_1657" x1="96.0614" y1="148.867" x2="65.0349" y2="15.15" gradientUnits="userSpaceOnUse">
<stop offset="0.103809" stop-color="white"/>
<stop offset="0.436548" stop-color="#FFAACE" stop-opacity="0.8"/>
<stop offset="0.71875" stop-color="#6F97FF" stop-opacity="0.8"/>
</linearGradient>
<linearGradient id="paint9_linear_2908_1657" x1="59.7091" y1="131.29" x2="-10.623" y2="5.96143" gradientUnits="userSpaceOnUse">
<stop stop-color="white"/>
<stop offset="0.591466" stop-color="#FF94D4"/>
<stop offset="1" stop-color="#C994FF"/>
</linearGradient>
<linearGradient id="paint10_linear_2908_1657" x1="113.459" y1="66.5561" x2="-6.13041" y2="116.331" gradientUnits="userSpaceOnUse">
<stop stop-color="#81FF6C"/>
<stop offset="1" stop-color="#31F3FF"/>
</linearGradient>
<linearGradient id="paint11_linear_2908_1657" x1="91.7613" y1="135.965" x2="-1.89938" y2="72.7538" gradientUnits="userSpaceOnUse">
<stop stop-color="white"/>
<stop offset="1" stop-color="white" stop-opacity="0"/>
</linearGradient>
<linearGradient id="paint12_linear_2908_1657" x1="125.243" y1="-8.4649e-06" x2="-39.1889" y2="97.174" gradientUnits="userSpaceOnUse">
<stop offset="0.149863" stop-color="white"/>
<stop offset="0.300261" stop-color="#8CFF31"/>
<stop offset="0.449118" stop-color="#45C3EB"/>
<stop offset="1" stop-color="#72E6FF"/>
</linearGradient>
<linearGradient id="paint13_linear_2908_1657" x1="53.3184" y1="176.944" x2="129.919" y2="51.3768" gradientUnits="userSpaceOnUse">
<stop stop-color="#6CFFED"/>
<stop offset="1" stop-color="#197F9F"/>
</linearGradient>
<linearGradient id="paint14_linear_2908_1657" x1="417.339" y1="110.605" x2="358.083" y2="-34.5411" gradientUnits="userSpaceOnUse">
<stop offset="0.464598" stop-color="white"/>
<stop offset="0.790313" stop-color="#6DF390"/>
<stop offset="1" stop-color="#21CAFF" stop-opacity="0.9"/>
</linearGradient>
<linearGradient id="paint15_linear_2908_1657" x1="119.418" y1="1.04591e-05" x2="-40.0683" y2="98.8214" gradientUnits="userSpaceOnUse">
<stop offset="0.125" stop-color="white"/>
<stop offset="0.297772" stop-color="#8CFF31"/>
<stop offset="0.447917" stop-color="#5BF5FF"/>
</linearGradient>
<linearGradient id="paint16_linear_2908_1657" x1="20.5688" y1="157.645" x2="15.9095" y2="122.99" gradientUnits="userSpaceOnUse">
<stop stop-color="#DFF4FF"/>
<stop offset="0.994792" stop-color="#0E42C8"/>
</linearGradient>
</defs>
</svg>
